<svg width="520" height="520" viewBox="0 0 520 520" fill="none" xmlns="http://www.w3.org/2000/svg">
<style>
  @media (prefers-color-scheme: dark) {
    .a { fill: #222; }
    .b { fill: #F66 }
  }
</style>
<rect width="520" height="520" class="a" fill="#EF4444"/>
<rect x="57" y="73" width="415" height="376" fill="white" class="b" />
<path d="M157.486 229.914H213.2V290.829H157.486V229.914ZM326.486 192.4C322.079 183.756 316.023 176.058 308.657 169.743C300.607 163.374 291.575 158.356 281.914 154.886C271.565 150.571 260.441 148.422 249.229 148.571H157.486V200.571H330.2C329.098 197.788 327.858 195.061 326.486 192.4ZM240.314 290.829H249.229C260.362 290.855 271.418 288.97 281.914 285.257C291.66 281.805 300.715 276.649 308.657 270.029C316.079 263.914 322.15 256.325 326.486 247.743C330.048 242.269 332.683 236.245 334.286 229.914H240.314V290.829ZM391.486 251.457C383.465 244.951 374.431 239.807 364.743 236.229H361.4C360.233 244.622 357.725 252.774 353.971 260.371C347.996 272.221 339.8 282.813 329.829 291.571C318.814 300.614 306.221 307.54 292.686 312C278.787 317.193 264.066 319.836 249.229 319.8H240.314V371.429H334.286C345.298 371.449 356.231 369.564 366.6 365.857C376.356 362.427 385.415 357.268 393.343 350.629C399.777 344.226 404.944 336.664 408.571 328.343C413.014 319.88 415.19 310.411 414.886 300.857C414.711 291.595 412.558 282.477 408.571 274.114C404.339 265.563 398.544 257.878 391.486 251.457ZM445.714 0H74.2857C54.5839 0 35.6891 7.82651 21.7578 21.7578C7.82651 35.6891 0 54.5839 0 74.2857V445.714C0 465.416 7.82651 484.311 21.7578 498.242C35.6891 512.173 54.5839 520 74.2857 520H445.714C465.416 520 484.311 512.173 498.242 498.242C512.173 484.311 520 465.416 520 445.714V74.2857C520 54.5839 512.173 35.6891 498.242 21.7578C484.311 7.82651 465.416 0 445.714 0ZM436.8 339.114C431.178 351.082 423.075 361.718 413.029 370.314C402.62 379.508 390.676 386.8 377.743 391.857C363.844 397.05 349.123 399.693 334.286 399.657H157.486V371.429H213.2V318.686H74.2857V290.829H130V148.571H74.2857V120.343H251.086C265.923 120.307 280.644 122.95 294.543 128.143C308.133 133.002 320.72 140.303 331.686 149.686C341.742 158.364 349.952 168.974 355.829 180.886C359.247 188.355 361.741 196.213 363.257 204.286C382.392 208.437 400.158 217.384 414.886 230.286C424.862 239.094 432.949 249.834 438.657 261.857C444.532 273.887 447.585 287.098 447.585 300.486C447.585 313.873 444.532 327.085 438.657 339.114H436.8Z" fill="#EF4444" class="a" />
</svg>